<?xml version="1.0" encoding="UTF-8"?>
<svg width="200" height="200" viewBox="0 0 200 200" xmlns="http://www.w3.org/2000/svg">
    <!-- Background circle -->
    <circle cx="100" cy="100" r="100" fill="#10a37f"/>
    
    <!-- User icon -->
    <path d="M100 50C83.3333 50 70 63.3333 70 80C70 96.6667 83.3333 110 100 110C116.667 110 130 96.6667 130 80C130 63.3333 116.667 50 100 50ZM100 90C91.6667 90 85 83.3333 85 75C85 66.6667 91.6667 60 100 60C108.333 60 115 66.6667 115 75C115 83.3333 108.333 90 100 90Z" fill="white"/>
    <path d="M100 120C75 120 50 135 50 160C50 170 58.3333 180 100 180C141.667 180 150 170 150 160C150 135 125 120 100 120ZM100 170C66.6667 170 60 165 60 160C60 150 75 140 100 140C125 140 140 150 140 160C140 165 133.333 170 100 170Z" fill="white"/>
</svg> 